<?xml version="1.0" standalone="no"?>
<!DOCTYPE svg PUBLIC "-//W3C//DTD SVG 20010904//EN"
 "http://www.w3.org/TR/2001/REC-SVG-20010904/DTD/svg10.dtd">
<svg version="1.0" xmlns="http://www.w3.org/2000/svg"
 width="198.000000pt" height="198.000000pt" viewBox="0 0 198.000000 198.000000"
 preserveAspectRatio="xMidYMid meet">
<metadata>
Created by potrace 1.11, written by Peter Selinger 2001-2013
</metadata>
<g transform="translate(0.000000,198.000000) scale(0.100000,-0.100000)"
fill="#000000" stroke="none">
<path d="M1028 1955 c-1 -2 -57 -5 -122 -6 -66 -1 -142 -6 -170 -11 -28 -4
-66 -10 -85 -13 -168 -27 -389 -111 -564 -214 -78 -46 -79 -46 -74 -82 3 -20
13 -54 23 -75 30 -65 176 -201 321 -297 72 -48 134 -87 137 -87 2 0 41 -22 85
-50 44 -28 82 -50 85 -50 9 0 260 -148 347 -206 53 -35 119 -89 148 -121 55
-61 116 -171 127 -229 8 -44 -16 -73 -95 -112 -179 -88 -539 29 -517 167 11
69 90 117 176 106 48 -6 128 -44 182 -87 l37 -29 -15 45 c-27 80 -113 159
-244 226 -23 12 -111 50 -196 86 -221 91 -356 162 -429 224 -48 41 -120 113
-139 140 -18 25 -18 25 -12 -35 8 -76 57 -271 89 -356 75 -200 184 -374 320
-513 156 -159 308 -262 496 -336 l54 -21 51 21 c285 120 521 317 674 562 l41
66 -32 48 c-71 108 -226 235 -397 327 -87 47 -265 122 -337 143 -186 53 -257
160 -206 310 22 66 49 100 98 124 94 45 267 13 375 -69 l24 -19 -69 2 c-88 4
-154 -15 -193 -55 -25 -25 -50 -85 -39 -95 1 -2 25 -6 52 -9 123 -16 290 -73
412 -141 149 -83 310 -243 380 -378 9 -16 14 -8 36 50 68 184 99 365 111 661
2 44 1 85 -3 91 -8 13 -77 55 -174 106 -90 48 -236 105 -337 131 -67 17 -80
20 -140 31 -19 4 -44 8 -55 10 -11 2 -63 7 -115 10 -52 3 -100 7 -107 9 -6 2
-13 2 -15 0z"/>
</g>
</svg>
